<mxfile host="app.diagrams.net" modified="2022-06-23T08:03:47.659Z" agent="5.0 (Macintosh; Intel Mac OS X 10_14_6) AppleWebKit/537.36 (KHTML, like Gecko) Chrome/102.0.0.0 Safari/537.36" etag="z2Oj6gq-z9oeh7ADw6bQ" version="20.0.3" type="github">
  <diagram id="sUtNnZuVVFvHvxaxI6Fy" name="Page-1">
    <mxGraphModel dx="946" dy="557" grid="1" gridSize="10" guides="1" tooltips="1" connect="1" arrows="1" fold="1" page="1" pageScale="1" pageWidth="827" pageHeight="1169" math="0" shadow="0">
      <root>
        <mxCell id="0" />
        <mxCell id="1" parent="0" />
        <mxCell id="2_yLUJa_vtWkAan97R7e-1" value="" style="rounded=1;whiteSpace=wrap;html=1;dashed=1;" vertex="1" parent="1">
          <mxGeometry x="110" y="80" width="460" height="250" as="geometry" />
        </mxCell>
        <mxCell id="2_yLUJa_vtWkAan97R7e-2" value="后端服务&lt;br&gt;Server" style="text;html=1;strokeColor=none;fillColor=none;align=center;verticalAlign=middle;whiteSpace=wrap;rounded=0;dashed=1;dashPattern=1 1;" vertex="1" parent="1">
          <mxGeometry x="130" y="90" width="60" height="30" as="geometry" />
        </mxCell>
        <mxCell id="2_yLUJa_vtWkAan97R7e-3" value="" style="ellipse;shape=cloud;whiteSpace=wrap;html=1;" vertex="1" parent="1">
          <mxGeometry x="140" y="145" width="120" height="80" as="geometry" />
        </mxCell>
        <mxCell id="2_yLUJa_vtWkAan97R7e-4" value="微信云函数&lt;br&gt;RESTful Api接口服务" style="text;html=1;strokeColor=none;fillColor=none;align=center;verticalAlign=middle;whiteSpace=wrap;rounded=0;dashed=1;dashPattern=1 1;" vertex="1" parent="1">
          <mxGeometry x="165" y="225" width="70" height="30" as="geometry" />
        </mxCell>
      </root>
    </mxGraphModel>
  </diagram>
</mxfile>
